<?xml version="1.0" encoding="utf-8"?>
<!-- Generator: Adobe Illustrator 25.4.1, SVG Export Plug-In . SVG Version: 6.00 Build 0)  -->
<svg version="1.1" id="Layer_1" xmlns="http://www.w3.org/2000/svg" xmlns:xlink="http://www.w3.org/1999/xlink" x="0px" y="0px"
	 viewBox="0 0 841.2 334.6" style="enable-background:new 0 0 841.2 334.6;" xml:space="preserve">
<g>
	<g>
		<path d="M244.2,33.7c23.8,0,43.2,19.3,43.2,43.2v157.6c0,7.2-5.9,13.1-13.1,13.1H91.9c-33,0-60-27-60-60v-13.6c0-33,27-60,60-60
			H201v-37C201,53,220.4,33.7,244.2,33.7L244.2,33.7 M124.1,241.1h71.1c2.9,0,5.9-2.9,5.9-5.9V120.3h-77c-2.9,0-5.9,2.9-5.9,5.9v109
			C118.2,238.1,121.1,241.1,124.1,241.1 M244.2,23.7c-29.3,0-53.2,23.8-53.2,53.2v27H91.9c-38.6,0-70,31.4-70,70v13.6
			c0,38.6,31.4,70,70,70h182.4c12.7,0,23.1-10.4,23.1-23.1V76.8C297.4,47.5,273.5,23.7,244.2,23.7L244.2,23.7z M128.2,130.3H191
			v100.8h-62.9V130.3L128.2,130.3z"/>
	</g>
	<g>
		<path d="M375.4,60.4c9.4,0,17,7.6,17,17v0c0,9.4-7.6,17-17,17H323c-9.4,0-17-7.6-17-17v0c0-9.4,7.6-17,17-17H375.4 M375.4,113.8
			c9.4,0,17,7.6,17,17v99.7c0,9.4-7.6,17-17,17H323c-9.4,0-17-7.6-17-17v-99.7c0-9.4,7.6-17,17-17H375.4 M375.4,50.4H323
			c-14.9,0-27,12.1-27,27c0,13.6,10.2,24.9,23.3,26.7c-13.2,1.8-23.3,13.1-23.3,26.7v99.7c0,14.9,12.1,27,27,27h52.4
			c14.9,0,27-12.1,27-27v-99.7c0-13.6-10.2-24.9-23.3-26.7c13.2-1.8,23.3-13.1,23.3-26.7C402.4,62.5,390.3,50.4,375.4,50.4
			L375.4,50.4z"/>
	</g>
	<g>
		<path d="M553.8,113.8v6.4h-46.2c-5.6,0-10.2,4.6-10.2,10.2v100.5h46.5v6.4h-46.5v20.4c0,23.8-19.3,43.2-43.2,43.2h0
			c-23.8,0-43.2-19.3-43.2-43.2v-73.9c0-38.5,31.5-70,70-70H553.8 M563.8,103.8h-10h-72.7c-44.1,0-80,35.9-80,80v73.9
			c0,29.3,23.8,53.2,53.2,53.2c29.3,0,53.2-23.8,53.2-53.2v-10.4h36.5h10v-10v-6.4v-10h-10h-36.5v-90.5c0-0.1,0.1-0.2,0.2-0.2h46.2
			h10v-10v-6.4V103.8L563.8,103.8z"/>
	</g>
	<g>
		<path d="M796.2,113.8c7.2,0,13.1,5.9,13.1,13.1v18.8c0,23.8-19.3,43.2-43.2,43.2h0c-23.8,0-43.2-19.3-43.2-43.2v-19.6
			c0-3.2-2.6-5.9-5.9-5.9h-77v84.1c0,23.8-19.3,43.2-43.2,43.2h0c-23.8,0-43.2-19.3-43.2-43.2v-40.5c0-27.6,22.4-50,50-50H796.2
			 M796.2,103.8H603.8c-33.1,0-60,26.9-60,60v40.5c0,29.3,23.8,53.2,53.2,53.2c29.3,0,53.2-23.8,53.2-53.2v-74.1H713v15.5
			c0,29.3,23.8,53.2,53.2,53.2c29.3,0,53.2-23.8,53.2-53.2v-18.8C819.3,114.2,809,103.8,796.2,103.8L796.2,103.8z"/>
	</g>
</g>
</svg>
