<?xml version="1.0" encoding="utf-8"?>
<!-- Generator: Adobe Illustrator 25.4.1, SVG Export Plug-In . SVG Version: 6.00 Build 0)  -->
<svg version="1.1" id="Layer_1" xmlns="http://www.w3.org/2000/svg" xmlns:xlink="http://www.w3.org/1999/xlink" x="0px" y="0px"
	 viewBox="0 0 841.2 334.6" style="enable-background:new 0 0 841.2 334.6;" xml:space="preserve">
<style type="text/css">
	.st0{fill:#D62828;}
</style>
<g>
	<path class="st0" d="M31.9,187.5v-13.6c0-33,27-60,60-60H201v-37c0-23.8,19.3-43.2,43.2-43.2h0c23.8,0,43.2,19.3,43.2,43.2v157.6
		c0,7.2-5.9,13.1-13.1,13.1H91.9C58.9,247.5,31.9,220.5,31.9,187.5z M124.1,241.1h71.1c2.9,0,5.9-2.9,5.9-5.9V120.3h-77
		c-2.9,0-5.9,2.9-5.9,5.9v109C118.2,238.1,121.1,241.1,124.1,241.1z"/>
	<path class="st0" d="M323,60.4h52.4c9.4,0,17,7.6,17,17v0c0,9.4-7.6,17-17,17H323c-9.4,0-17-7.6-17-17v0
		C306.1,68,313.7,60.4,323,60.4z M323,113.8h52.4c9.4,0,17,7.6,17,17v99.7c0,9.4-7.6,17-17,17H323c-9.4,0-17-7.6-17-17v-99.7
		C306.1,121.4,313.7,113.8,323,113.8z"/>
	<path class="st0" d="M411.1,183.8c0-38.5,31.5-70,70-70h72.7v6.4h-46.2c-5.6,0-10.2,4.6-10.2,10.2v100.5h46.5v6.4h-46.5v20.4
		c0,23.8-19.3,43.2-43.2,43.2h0c-23.8,0-43.2-19.3-43.2-43.2V183.8z"/>
	<path class="st0" d="M603.8,113.8h192.4c7.2,0,13.1,5.9,13.1,13.1v18.8c0,23.8-19.3,43.2-43.2,43.2h0c-23.8,0-43.2-19.3-43.2-43.2
		v-19.6c0-3.2-2.6-5.9-5.9-5.9h-77v84.1c0,23.8-19.3,43.2-43.2,43.2h0c-23.8,0-43.2-19.3-43.2-43.2v-40.5
		C553.8,136.2,576.2,113.8,603.8,113.8z"/>
</g>
</svg>
